<svg version="1.2" baseProfile="tiny-ps" xmlns="http://www.w3.org/2000/svg" viewBox="0 0 64 43" width="64" height="43">
	<title>right-svg</title>
	<style>
		tspan { white-space:pre }
		.s0 { fill: #ffffff } 
	</style>
	<g id="Layer_2">
		<g id="Layer_1-2">
			<path id="Layer" class="s0" d="m63.21 19.57c0.25 0.25 0.45 0.54 0.58 0.87c0.13 0.32 0.2 0.67 0.2 1.02c0 0.35-0.07 0.7-0.2 1.02c-0.13 0.32-0.33 0.62-0.58 0.87l-18.72 18.54c-0.49 0.55-1.18 0.87-1.92 0.88c-0.73 0.02-1.44-0.27-1.96-0.79c-0.52-0.52-0.8-1.23-0.78-1.96c0.02-0.73 0.35-1.43 0.89-1.91l14.27-14.11h-52.33c-0.74 0.05-1.46-0.22-1.99-0.72c-0.54-0.5-0.84-1.21-0.84-1.94c0-0.74 0.3-1.44 0.84-1.94c0.54-0.5 1.26-0.77 1.99-0.72h52.12l-14.07-14.12c-0.48-0.5-0.75-1.18-0.74-1.88c0.01-0.7 0.29-1.36 0.78-1.86c0.49-0.49 1.16-0.77 1.86-0.78c0.7-0.01 1.37 0.26 1.87 0.74l18.72 18.79h-0.01z" />
		</g>
	</g>
</svg>